<?xml version="1.0" encoding="utf-8"?>
<!-- Generator: Adobe Illustrator 19.2.1, SVG Export Plug-In . SVG Version: 6.00 Build 0)  -->
<svg version="1.1" id="Layer_1" xmlns="http://www.w3.org/2000/svg" xmlns:xlink="http://www.w3.org/1999/xlink" x="0px" y="0px"
	 viewBox="0 0 389.5 50" style="enable-background:new 0 0 389.5 50;" xml:space="preserve">
<style type="text/css">
	.st0{fill:#4a4a4a;}
</style>
<g>
	<path class="st0" d="M25,0C11.2,0,0,11.2,0,25s11.2,25,25,25s25-11.2,25-25S38.8,0,25,0z M42.3,42.3C37.7,47,31.6,49.5,25,49.5
		S12.3,47,7.7,42.3S0.5,31.6,0.5,25S3,12.3,7.7,7.7S18.4,0.5,25,0.5S37.7,3,42.3,7.7s7.2,10.8,7.2,17.3S47,37.7,42.3,42.3z"/>
	<path class="st0" d="M25,1C11.7,1,1,11.7,1,25s10.7,24,24,24s24-10.7,24-24S38.3,1,25,1z M41.6,41.6c-4.5,4.5-10.3,6.9-16.6,6.9
		s-12.2-2.4-16.6-6.9S1.5,31.3,1.5,25S3.9,12.8,8.4,8.4S18.7,1.5,25,1.5s12.2,2.4,16.6,6.9s6.9,10.4,6.9,16.6
		C48.5,31.3,46.1,37.2,41.6,41.6z"/>
	<path class="st0" d="M41.2,25c0-8.9-7.3-16.2-16.2-16.2S8.8,16.1,8.8,25S16.1,41.2,25,41.2S41.2,34,41.2,25z M25,40.7
		c-8.7,0-15.7-7-15.7-15.7S16.3,9.3,25,9.3s15.7,7,15.7,15.7S33.7,40.7,25,40.7z"/>
	<path class="st0" d="M6.8,25c0-0.5-0.1-1-0.3-1.5H5.9c0.2,0.2,0.3,0.8,0.3,1.5c0,1.1-0.5,1.6-1,1.6s-1-0.5-1.1-1.6
		c0-0.7,0.2-1.2,0.3-1.5H3.9c-0.2,0.5-0.2,1-0.2,1.5c0,1.3,0.7,2.2,1.6,2.1C6.2,27.2,6.8,26.3,6.8,25z"/>
	<path class="st0" d="M5.3,22.5c0.9,0.2,1.7-0.5,2-1.7c0.3-1.2-0.1-2.3-1-2.4c-0.9-0.2-1.7,0.5-2,1.7C4,21.2,4.5,22.3,5.3,22.5z
		 M4.8,20.2c0.2-0.9,0.7-1.4,1.3-1.2c0.6,0.2,0.9,0.9,0.6,1.7c-0.2,0.9-0.7,1.4-1.3,1.2S4.6,21,4.8,20.2z"/>
	<polygon class="st0" points="9.4,15.5 8.9,15.2 7.9,17.3 5.7,16.1 5.5,16.6 8.1,18 	"/>
	<path class="st0" d="M8.2,14.4c0.7,0.5,1.7,0.3,2.6-0.7c0.8-1,0.9-2,0.2-2.7c-0.7-0.5-1.7-0.3-2.6,0.7C7.6,12.7,7.5,13.8,8.2,14.4z
		 M8.8,12.1c0.5-0.7,1.2-0.9,1.7-0.5c0.5,0.4,0.4,1.2-0.2,1.8c-0.5,0.7-1.2,0.9-1.7,0.5C8.1,13.5,8.2,12.7,8.8,12.1z"/>
	<path class="st0" d="M13.1,11.1l-0.6-0.8l0.9-0.7l1.2,0.4l0.5-0.4l-1.3-0.4C14.2,8.8,14.1,8.4,14,8c-0.3-0.4-0.9-0.5-1.5-0.1
		l-1.6,1.2l1.8,2.3L13.1,11.1z M11.6,9.1l1-0.8c0.4-0.2,0.6-0.2,0.8,0s0.2,0.5-0.2,0.7l-1,0.8L11.6,9.1z"/>
	<path class="st0" d="M18.1,8.1l-0.3-0.9l1.1-0.4l1,0.7l0.6-0.2l-1.1-0.8c0.4-0.3,0.5-0.7,0.4-1.1c-0.2-0.5-0.6-0.8-1.3-0.5l-2,0.6
		l0.9,2.8L18.1,8.1z M18.5,5.4c0.4-0.2,0.6,0,0.7,0.2c0.1,0.2,0,0.5-0.4,0.6l-1.2,0.4l-0.3-0.9L18.5,5.4z"/>
	<path class="st0" d="M23.2,7c1.3-0.2,2.1-0.8,2-1.7c-0.1-0.9-1-1.5-2.3-1.3c-1.2,0.2-2.1,0.9-2,1.7C21,6.6,22,7,23.2,7z M23,4.4
		c0.9-0.1,1.6,0.2,1.6,0.9c0.1,0.6-0.5,1.1-1.4,1.2c-0.9,0.1-1.6-0.2-1.6-0.9S22.1,4.5,23,4.4z"/>
	<path class="st0" d="M28,7.1c1.3,0.2,2.2-0.2,2.4-1.2c0.2-0.9-0.6-1.6-1.9-1.9c-1.2-0.2-2.2,0.2-2.3,1.2C26.1,6.2,26.8,6.9,28,7.1z
		 M26.9,5.3c0.1-0.6,0.8-0.9,1.6-0.8c0.9,0.2,1.4,0.6,1.3,1.2c-0.1,0.6-0.8,0.9-1.6,0.8C27.3,6.5,26.7,6,26.9,5.3z"/>
	<polygon class="st0" points="32.6,6.4 33,8.8 35.1,7.6 34.8,9.6 35.5,9.8 35.7,6.6 33.4,7.9 32.9,5.3 30.5,7.5 31.1,7.7 	"/>
	<polygon class="st0" points="38.5,11.2 39.8,12.6 40.2,12.3 38.9,10.9 39.5,10.3 41.1,12 41.5,11.7 39.5,9.5 37.3,11.6 37.7,12
		"/>
	<rect x="39.5" y="13.4" transform="matrix(0.8171 -0.5764 0.5764 0.8171 -0.3778 26.1533)" class="st0" width="3" height="0.6"/>
	<polygon class="st0" points="41.8,18 42.3,17.7 41.2,15.8 43.4,14.6 43.1,14.1 40.5,15.5 	"/>
	<polygon class="st0" points="42,18.2 42.2,18.8 44.1,19.1 42.6,20.9 44.8,21.8 43.1,22.9 43.3,23.5 45.9,21.6 43.5,20.6 45.2,18.7
			"/>
	<path class="st0" d="M45.3,24c-1.4,0-0.5,2.6-1.4,2.6c-0.3,0-0.4-0.5-0.4-1.1c0-0.5,0.1-1.1,0.2-1.6h-0.5c-0.1,0.5-0.2,1-0.2,1.6
		c0,0.8,0.1,1.7,0.9,1.7c1.4,0.1,0.6-2.6,1.4-2.6c0.3,0,0.3,0.7,0.3,1c0,0.5-0.1,0.9-0.2,1.3h0.5c0.1-0.3,0.2-0.8,0.2-1.3
		C46.2,25,46.1,24.1,45.3,24z"/>
	<polygon class="st0" points="8.4,34.2 6.9,34.5 7.9,33.4 7.7,33 5.9,33.8 6,34.1 7.2,33.6 6.5,34.4 6.6,34.8 7.7,34.7 6.6,35.3
		6.8,35.6 8.5,34.6 	"/>
	<path class="st0" d="M9.3,35.8c-0.3-0.5-0.6-0.5-0.9-0.2L7.7,36c-0.2,0.2-0.4,0.5-0.1,0.9c0.3,0.5,0.6,0.5,0.9,0.2l0.7-0.5
		C9.5,36.6,9.6,36.2,9.3,35.8z M9,36.5L8.4,37C8.2,37,8,37,7.9,36.8c-0.2-0.2-0.2-0.4,0-0.5l0.6-0.5C8.7,35.8,8.8,35.8,9,36
		C9.2,36.2,9.1,36.3,9,36.5z"/>
	<polygon class="st0" points="10.7,38.1 10.9,37.9 10,36.8 9.8,37 10.1,37.4 8.8,38.5 9.1,38.8 10.4,37.7 	"/>
	<rect x="9.9" y="39" transform="matrix(0.7065 -0.7078 0.7078 0.7065 -24.5488 19.1656)" class="st0" width="2" height="0.4"/>
	<path class="st0" d="M12.7,39.5c-0.4-0.4-0.8-0.2-0.9,0l-0.5,0.6c-0.2,0.2-0.2,0.6,0.2,0.9c0.4,0.4,0.8,0.2,0.9,0l0.5-0.6
		C13.1,40.2,13.2,39.9,12.7,39.5z M12.7,40.2l-0.5,0.6C12,41,12,41,11.7,40.9s-0.2-0.3-0.1-0.5l0.5-0.6c0.2-0.2,0.2-0.2,0.5,0
		C12.7,40,12.7,40.2,12.7,40.2z"/>
	<polygon class="st0" points="14,42.3 14.2,40.7 13.8,40.4 12.7,42.1 13,42.3 13.8,41 13.7,42.7 14.1,43 15.2,41.3 14.8,41.1 	"/>
	<path class="st0" d="M17.3,42.4l-0.7-0.3l-0.8,1.8l0.3,0.2l0.2-0.6l0.3,0.2c0.4,0.2,0.7,0.1,0.8-0.2l0.1-0.2
		C17.8,42.8,17.7,42.6,17.3,42.4z M17.3,43l-0.1,0.2c-0.1,0.2-0.2,0.2-0.3,0.1l-0.3-0.2l0.3-0.6l0.3,0.2
		C17.3,42.8,17.3,42.9,17.3,43z"/>
	<rect x="17.3" y="43.7" transform="matrix(0.3333 -0.9428 0.9428 0.3333 -29.1552 46.5071)" class="st0" width="2" height="0.4"/>
	<path class="st0" d="M19.4,43.8l-0.2,0.9c-0.1,0.3,0.1,0.6,0.5,0.7c0.2,0.1,0.4,0.1,0.5,0.1l0.1-0.3c-0.2,0-0.3-0.1-0.5-0.1
		c-0.2-0.1-0.3-0.2-0.2-0.4l0.2-0.7c0.1-0.2,0.2-0.2,0.4-0.2c0.2,0,0.3,0.1,0.5,0.2l0.2-0.3c-0.2-0.1-0.3-0.2-0.5-0.2
		C19.7,43.3,19.5,43.4,19.4,43.8z"/>
	<polygon class="st0" points="21.1,44 21.6,44.1 21.4,45.7 21.7,45.8 22,44.1 22.6,44.2 22.6,43.9 21.2,43.7 	"/>
	<path class="st0" d="M24.1,45.4c0,0.2-0.1,0.3-0.4,0.3c-0.2,0-0.3-0.2-0.3-0.3l0.1-1.4h-0.4L23,45.4c0,0.3,0.2,0.6,0.7,0.6
		s0.8-0.2,0.8-0.5l0.1-1.4h-0.4L24.1,45.4z"/>
	<path class="st0" d="M26.7,44.8v-0.2c0-0.3-0.2-0.5-0.6-0.5l-0.8,0.1l0.1,2h0.4v-0.6h0.4l0.5,0.6h0.5l-0.5-0.7
		C26.6,45.2,26.7,45,26.7,44.8z M26.1,45h-0.4v-0.7h0.4c0.2,0,0.3,0.1,0.3,0.2v0.2C26.4,44.9,26.3,45,26.1,45z"/>
	<polygon class="st0" points="28,45.5 28,44.9 28.8,44.8 28.7,44.5 27.9,44.6 27.8,44.1 28.7,44 28.6,43.7 27.4,43.9 27.7,45.9
		28.9,45.6 28.9,45.3 	"/>
	<polygon class="st0" points="31.6,42.8 31.6,44.4 30.6,43.2 30.2,43.3 30.8,45.2 31.2,45.1 30.8,43.8 31.4,44.7 31.9,44.5
		31.9,43.4 32.3,44.7 32.7,44.5 32,42.7 	"/>
	<polygon class="st0" points="33.7,43.8 33.5,43.3 34.2,43 34.1,42.7 33.4,43 33.1,42.6 33.9,42.2 33.8,41.9 32.7,42.4 33.5,44.2
		34.6,43.7 34.5,43.4 	"/>
	<polygon class="st0" points="35.5,40.8 35.9,42.3 34.7,41.3 34.4,41.6 35.3,43.3 35.6,43.1 35,42 35.9,42.7 36.2,42.4 36,41.3
		36.7,42.4 37,42.3 35.9,40.6 	"/>
	<path class="st0" d="M38,39.7c-0.2-0.2-0.5-0.4-0.9,0c-0.5,0.4-0.4,0.7-0.2,0.9l0.5,0.6c0.2,0.2,0.5,0.4,0.9,0
		c0.5-0.4,0.4-0.7,0.2-0.9L38,39.7z M38.1,41c-0.2,0.2-0.4,0.2-0.5,0l-0.5-0.6c-0.2-0.2-0.1-0.3,0.1-0.5c0.2-0.2,0.4-0.2,0.5,0
		l0.5,0.6C38.4,40.7,38.3,40.9,38.1,41z"/>
	<path class="st0" d="M39.7,38.4l-0.2-0.2c-0.2-0.2-0.5-0.2-0.9,0.1l-0.5,0.5l1.4,1.4l0.2-0.2l-0.5-0.5l0.2-0.2l0.8,0.2l0.3-0.4
		l-0.9-0.2C39.9,38.7,39.8,38.5,39.7,38.4z M39.4,39l-0.3,0.2l-0.5-0.5l0.3-0.3c0.2-0.2,0.2-0.2,0.4,0l0.2,0.2
		C39.5,38.7,39.5,38.8,39.4,39z"/>
	<rect x="40.3" y="36.7" transform="matrix(0.6332 -0.774 0.774 0.6332 -14.2916 45.1751)" class="st0" width="0.4" height="2"/>
	<polygon class="st0" points="41.9,37 41.5,36.6 41.9,36 41.6,35.9 41.2,36.5 40.8,36.2 41.2,35.5 41,35.3 40.3,36.3 42,37.4
		42.7,36.4 42.3,36.2 	"/>
	<path class="st0" d="M43.2,34.4c-0.3-0.2-0.5-0.2-0.8,0.2c-0.2,0.2-0.2,0.2-0.5,0.2c-0.2-0.1-0.2-0.2-0.1-0.4
		c0.1-0.2,0.2-0.3,0.3-0.5L42,33.7c-0.2,0.2-0.2,0.3-0.3,0.5c-0.2,0.5-0.2,0.7,0.2,0.9c0.4,0.2,0.5,0.2,0.8-0.2
		c0.2-0.3,0.2-0.2,0.5-0.2c0.2,0.1,0.2,0.2,0.1,0.4c-0.1,0.2-0.2,0.3-0.4,0.5l0.2,0.2c0.2-0.1,0.3-0.3,0.4-0.5
		C43.7,34.8,43.5,34.5,43.2,34.4z"/>
	<path class="st0" d="M25,9.7C16.6,9.7,9.7,16.6,9.7,25S16.6,40.3,25,40.3S40.3,33.4,40.3,25S33.4,9.7,25,9.7z M25.4,21.6h-6
		c-2.4,0-3.2,1.7-3.2,3.4c0,1.8,0.8,3.5,3.2,3.5h6v2.8h-6c-3.9,0-5.7-2.7-5.7-6.3s1.7-6.2,5.7-6.2h6V21.6z M32.7,31.3l-2.8-4h-2
		l-1.7-2.7h4.5c1.8,0,2.1-1,2.1-1.6s-0.4-1.6-2.1-1.6h-4.5v-2.7h5.3c3.5,0,4.6,2.7,4.6,4.3c0,1.2-0.7,3-2.9,3.8l3,4.5h-3.5V31.3z"/>
	<circle class="st0" cx="5.1" cy="30.1" r="0.7"/>
	<circle class="st0" cx="44.3" cy="30.1" r="0.7"/>
</g>
<g>
	<path class="st0" d="M83.1,31.1c-0.4,3.2-1.5,5.6-3.5,7.3c-2,1.7-4.6,2.6-7.8,2.6c-3.5,0-6.4-1.3-8.5-3.8C61.1,34.7,60,31.3,60,27
		v-2.9c0-2.8,0.5-5.2,1.5-7.3c1-2.1,2.4-3.7,4.2-4.9c1.8-1.1,3.9-1.7,6.3-1.7c3.2,0,5.7,0.9,7.7,2.7c1.9,1.8,3,4.2,3.4,7.4h-4
		c-0.3-2.4-1.1-4.1-2.2-5.2c-1.1-1.1-2.7-1.6-4.8-1.6c-2.5,0-4.5,0.9-5.9,2.8c-1.4,1.9-2.1,4.5-2.1,8v2.9c0,3.3,0.7,5.8,2,7.8
		c1.4,1.9,3.3,2.9,5.7,2.9c2.2,0,3.9-0.5,5-1.5c1.2-1,1.9-2.7,2.3-5.2H83.1z"/>
	<path class="st0" d="M86.8,29.3c0-2.2,0.4-4.1,1.3-5.9c0.9-1.7,2-3.1,3.6-4c1.5-0.9,3.3-1.4,5.2-1.4c3,0,5.5,1,7.4,3.1
		s2.8,4.9,2.8,8.4v0.3c0,2.2-0.4,4.1-1.2,5.8c-0.8,1.7-2,3.1-3.6,4c-1.5,1-3.3,1.4-5.3,1.4c-3,0-5.5-1-7.3-3.1
		c-1.9-2.1-2.8-4.9-2.8-8.3V29.3z M90.7,29.7c0,2.5,0.6,4.4,1.7,5.9c1.1,1.5,2.7,2.2,4.6,2.2c1.9,0,3.5-0.8,4.6-2.3
		c1.1-1.5,1.7-3.6,1.7-6.4c0-2.4-0.6-4.4-1.7-5.9c-1.2-1.5-2.7-2.3-4.6-2.3c-1.9,0-3.4,0.7-4.5,2.2C91.2,24.8,90.7,26.9,90.7,29.7z"
		/>
	<path class="st0" d="M116,40.6h-3.8V9h3.8V40.6z"/>
	<path class="st0" d="M121.1,29.3c0-2.2,0.4-4.1,1.3-5.9c0.9-1.7,2-3.1,3.6-4c1.5-0.9,3.3-1.4,5.2-1.4c3,0,5.5,1,7.4,3.1
		c1.9,2.1,2.8,4.9,2.8,8.4v0.3c0,2.2-0.4,4.1-1.2,5.8c-0.8,1.7-2,3.1-3.6,4c-1.5,1-3.3,1.4-5.3,1.4c-3,0-5.5-1-7.3-3.1
		c-1.9-2.1-2.8-4.9-2.8-8.3V29.3z M124.9,29.7c0,2.5,0.6,4.4,1.7,5.9c1.1,1.5,2.7,2.2,4.6,2.2c1.9,0,3.5-0.8,4.6-2.3
		c1.1-1.5,1.7-3.6,1.7-6.4c0-2.4-0.6-4.4-1.7-5.9c-1.2-1.5-2.7-2.3-4.6-2.3c-1.9,0-3.4,0.7-4.5,2.2
		C125.5,24.8,124.9,26.9,124.9,29.7z"/>
	<path class="st0" d="M156.9,21.8c-0.6-0.1-1.2-0.1-1.9-0.1c-2.5,0-4.2,1.1-5.1,3.2v15.8h-3.8V18.3h3.7l0.1,2.6c1.2-2,3-3,5.3-3
		c0.7,0,1.3,0.1,1.7,0.3V21.8z"/>
	<path class="st0" d="M182.4,28.5h-7v12.1h-4V10.6h9.9c3.4,0,6,0.8,7.8,2.3c1.8,1.5,2.7,3.8,2.7,6.7c0,1.9-0.5,3.5-1.5,4.9
		c-1,1.4-2.4,2.4-4.2,3.1l7,12.7v0.2h-4.2L182.4,28.5z M175.3,25.2h6.1c2,0,3.5-0.5,4.7-1.5c1.2-1,1.7-2.4,1.7-4.1
		c0-1.9-0.6-3.3-1.7-4.3c-1.1-1-2.7-1.5-4.8-1.5h-6V25.2z"/>
	<path class="st0" d="M195.7,29.3c0-2.2,0.4-4.1,1.3-5.9c0.9-1.7,2-3.1,3.6-4c1.5-0.9,3.3-1.4,5.2-1.4c3,0,5.5,1,7.4,3.1
		c1.9,2.1,2.8,4.9,2.8,8.4v0.3c0,2.2-0.4,4.1-1.2,5.8c-0.8,1.7-2,3.1-3.6,4c-1.5,1-3.3,1.4-5.3,1.4c-3,0-5.5-1-7.3-3.1
		c-1.9-2.1-2.8-4.9-2.8-8.3V29.3z M199.5,29.7c0,2.5,0.6,4.4,1.7,5.9c1.1,1.5,2.7,2.2,4.6,2.2c1.9,0,3.5-0.8,4.6-2.3
		c1.1-1.5,1.7-3.6,1.7-6.4c0-2.4-0.6-4.4-1.7-5.9c-1.2-1.5-2.7-2.3-4.6-2.3c-1.9,0-3.4,0.7-4.5,2.2
		C200.1,24.8,199.5,26.9,199.5,29.7z"/>
	<path class="st0" d="M219.7,29.3c0-2.2,0.4-4.1,1.3-5.9c0.9-1.7,2-3.1,3.6-4c1.5-0.9,3.3-1.4,5.2-1.4c3,0,5.5,1,7.4,3.1
		c1.9,2.1,2.8,4.9,2.8,8.4v0.3c0,2.2-0.4,4.1-1.2,5.8c-0.8,1.7-2,3.1-3.6,4c-1.5,1-3.3,1.4-5.3,1.4c-3,0-5.5-1-7.3-3.1
		c-1.9-2.1-2.8-4.9-2.8-8.3V29.3z M223.6,29.7c0,2.5,0.6,4.4,1.7,5.9c1.1,1.5,2.7,2.2,4.6,2.2c1.9,0,3.5-0.8,4.6-2.3
		c1.1-1.5,1.7-3.6,1.7-6.4c0-2.4-0.6-4.4-1.7-5.9c-1.2-1.5-2.7-2.3-4.6-2.3c-1.9,0-3.4,0.7-4.5,2.2
		C224.1,24.8,223.6,26.9,223.6,29.7z"/>
	<path class="st0" d="M248.3,18.3l0.1,2.5c1.6-1.9,3.8-2.9,6.6-2.9c3.1,0,5.2,1.2,6.4,3.6c0.7-1.1,1.7-1.9,2.9-2.6
		c1.2-0.7,2.6-1,4.2-1c4.9,0,7.4,2.6,7.4,7.8v14.9h-3.8V25.9c0-1.6-0.4-2.8-1.1-3.6c-0.7-0.8-1.9-1.2-3.7-1.2
		c-1.4,0-2.6,0.4-3.5,1.3c-0.9,0.8-1.5,2-1.6,3.4v14.8h-3.8V26c0-3.2-1.6-4.9-4.8-4.9c-2.5,0-4.2,1.1-5.1,3.2v16.2h-3.8V18.3H248.3z
		"/>
	<path class="st0" d="M309.2,27.4h-12.6v13.2h-3.9V10.6h18.6v3.2h-14.6v10.3h12.6V27.4z"/>
	<path class="st0" d="M315.4,12.4c0-0.6,0.2-1.1,0.6-1.6c0.4-0.4,0.9-0.6,1.7-0.6s1.3,0.2,1.7,0.6c0.4,0.4,0.6,0.9,0.6,1.6
		c0,0.6-0.2,1.1-0.6,1.5c-0.4,0.4-0.9,0.6-1.7,0.6s-1.3-0.2-1.7-0.6C315.6,13.6,315.4,13.1,315.4,12.4z M319.5,40.6h-3.8V18.3h3.8
		V40.6z"/>
	<path class="st0" d="M329.7,40.6h-3.8V9h3.8V40.6z"/>
	<path class="st0" d="M339.4,18.3l0.1,2.5c1.6-1.9,3.8-2.9,6.6-2.9c3.1,0,5.2,1.2,6.4,3.6c0.7-1.1,1.7-1.9,2.9-2.6
		c1.2-0.7,2.6-1,4.2-1c4.9,0,7.4,2.6,7.4,7.8v14.9h-3.8V25.9c0-1.6-0.4-2.8-1.1-3.6c-0.7-0.8-1.9-1.2-3.7-1.2
		c-1.4,0-2.6,0.4-3.5,1.3c-0.9,0.8-1.5,2-1.6,3.4v14.8h-3.8V26c0-3.2-1.6-4.9-4.8-4.9c-2.5,0-4.2,1.1-5.1,3.2v16.2h-3.8V18.3H339.4z
		"/>
	<path class="st0" d="M385.7,34.7c0-1-0.4-1.8-1.2-2.4c-0.8-0.6-2.1-1.1-4.1-1.5c-1.9-0.4-3.5-0.9-4.6-1.5c-1.1-0.6-2-1.3-2.5-2.1
		c-0.5-0.8-0.8-1.7-0.8-2.8c0-1.8,0.8-3.4,2.3-4.6c1.5-1.3,3.5-1.9,5.9-1.9c2.5,0,4.6,0.7,6.1,2c1.6,1.3,2.4,3,2.4,5h-3.8
		c0-1-0.4-1.9-1.3-2.7c-0.9-0.8-2-1.1-3.3-1.1c-1.4,0-2.5,0.3-3.2,0.9c-0.8,0.6-1.2,1.4-1.2,2.4c0,0.9,0.4,1.6,1.1,2.1
		c0.7,0.5,2,0.9,3.9,1.3c1.9,0.4,3.4,0.9,4.6,1.5c1.2,0.6,2.1,1.3,2.6,2.1c0.6,0.8,0.9,1.8,0.9,3c0,2-0.8,3.6-2.4,4.8
		c-1.6,1.2-3.7,1.8-6.2,1.8c-1.8,0-3.4-0.3-4.7-0.9c-1.4-0.6-2.4-1.5-3.2-2.6c-0.8-1.1-1.2-2.4-1.2-3.7h3.8c0.1,1.3,0.6,2.3,1.5,3
		c1,0.7,2.2,1.1,3.8,1.1c1.4,0,2.6-0.3,3.5-0.9C385.3,36.4,385.7,35.7,385.7,34.7z"/>
</g>
</svg>
